# xmcd
#
# Track frame offsets:
#	150
#	12602
#	23777
#	35675
#	43982
#	56282
#	67960
#	81335
#	90527
#	103082
#	111272
#	126862
#	139050
#	150242
#
# Disc length: 2212 seconds
#
# Revision: 1
# Processed by: cddbd v1.5.1PL0 Copyright (c) Steve Scherf et al.
# Submitted via: audiograbber 1.82.02
#
DISCID=b808a20e
DTITLE=Barry Jones Family - Voices and Strings
DYEAR=2005
DGENRE=Bluegrass
TTITLE0=My Sins Are Gone
TTITLE1=Gloryland Way
TTITLE2=Voices Calling Me
TTITLE3=He Keeps Me Singing
TTITLE4=Bloodstain On The Mountain
TTITLE5=Judgement Morning
TTITLE6=Jesus Paid It All
TTITLE7=Military 5-String
TTITLE8=He Paid A Debt
TTITLE9=Honey In The Rock
TTITLE10=Can You Imagine
TTITLE11=Somebody Called My Name
TTITLE12=Who Can Do Anything
TTITLE13=The Last Supper
EXTD=
EXTT0=
EXTT1=
EXTT2=
EXTT3=
EXTT4=
EXTT5=
EXTT6=
EXTT7=
EXTT8=
EXTT9=
EXTT10=
EXTT11=
EXTT12=
EXTT13=
PLAYORDER=
